<svg width="99" height="22" viewBox="0 0 99 22" fill="none" xmlns="http://www.w3.org/2000/svg">
<path d="M0.944 17V1.112H8.552C10.184 1.112 11.48 1.56 12.44 2.456C13.416 3.352 13.904 4.56 13.904 6.08C13.904 7.104 13.704 7.92 13.304 8.528C12.92 9.136 12.432 9.6 11.84 9.92C11.248 10.224 10.656 10.448 10.064 10.592L14.24 17H12.104L8.264 10.904H2.744V17H0.944ZM2.744 9.2H8.24C8.816 9.2 9.4 9.112 9.992 8.936C10.584 8.76 11.08 8.448 11.48 8C11.896 7.536 12.104 6.896 12.104 6.08C12.104 5.072 11.76 4.28 11.072 3.704C10.384 3.112 9.472 2.816 8.336 2.816H2.744V9.2ZM21.6614 17.192C20.4454 17.192 19.3814 16.92 18.4694 16.376C17.5574 15.816 16.8454 15.064 16.3334 14.12C15.8374 13.176 15.5894 12.136 15.5894 11C15.5894 9.848 15.8294 8.808 16.3094 7.88C16.7894 6.936 17.4774 6.192 18.3734 5.648C19.2694 5.088 20.3254 4.808 21.5414 4.808C22.7734 4.808 23.8294 5.088 24.7094 5.648C25.6054 6.192 26.2934 6.936 26.7734 7.88C27.2534 8.808 27.4934 9.848 27.4934 11V11.72H17.4374C17.5334 12.424 17.7574 13.072 18.1094 13.664C18.4774 14.24 18.9654 14.704 19.5734 15.056C20.1814 15.392 20.8854 15.56 21.6854 15.56C22.5334 15.56 23.2454 15.376 23.8214 15.008C24.3974 14.624 24.8454 14.136 25.1654 13.544H27.1334C26.7174 14.616 26.0534 15.496 25.1414 16.184C24.2454 16.856 23.0854 17.192 21.6614 17.192ZM17.4614 10.04H25.6214C25.4614 9.016 25.0294 8.16 24.3254 7.472C23.6214 6.784 22.6934 6.44 21.5414 6.44C20.3894 6.44 19.4614 6.784 18.7574 7.472C18.0694 8.16 17.6374 9.016 17.4614 10.04ZM34.7568 17.192C33.5888 17.192 32.5648 16.92 31.6848 16.376C30.8208 15.816 30.1488 15.064 29.6688 14.12C29.1888 13.176 28.9488 12.136 28.9488 11C28.9488 9.848 29.1888 8.808 29.6688 7.88C30.1488 6.936 30.8208 6.192 31.6848 5.648C32.5648 5.088 33.5888 4.808 34.7568 4.808C35.7488 4.808 36.5968 5 37.3008 5.384C38.0208 5.768 38.6048 6.288 39.0528 6.944V0.199999H40.8528V17H39.0528V15.08C38.6048 15.72 38.0208 16.232 37.3008 16.616C36.5968 17 35.7488 17.192 34.7568 17.192ZM34.9968 15.56C35.8928 15.56 36.6448 15.352 37.2528 14.936C37.8768 14.52 38.3488 13.968 38.6688 13.28C38.9888 12.576 39.1488 11.816 39.1488 11C39.1488 10.168 38.9888 9.408 38.6688 8.72C38.3488 8.032 37.8768 7.48 37.2528 7.064C36.6448 6.648 35.8928 6.44 34.9968 6.44C34.1168 6.44 33.3568 6.648 32.7168 7.064C32.0768 7.48 31.5888 8.032 31.2528 8.72C30.9168 9.408 30.7488 10.168 30.7488 11C30.7488 11.816 30.9168 12.576 31.2528 13.28C31.5888 13.968 32.0768 14.52 32.7168 14.936C33.3568 15.352 34.1168 15.56 34.9968 15.56ZM49.2943 17.192C48.0783 17.192 47.0143 16.92 46.1023 16.376C45.1903 15.816 44.4783 15.064 43.9663 14.12C43.4703 13.176 43.2223 12.136 43.2223 11C43.2223 9.848 43.4623 8.808 43.9423 7.88C44.4223 6.936 45.1103 6.192 46.0063 5.648C46.9023 5.088 47.9583 4.808 49.1743 4.808C50.4063 4.808 51.4623 5.088 52.3423 5.648C53.2383 6.192 53.9263 6.936 54.4062 7.88C54.8863 8.808 55.1263 9.848 55.1263 11V11.72H45.0703C45.1663 12.424 45.3903 13.072 45.7423 13.664C46.1103 14.24 46.5983 14.704 47.2063 15.056C47.8143 15.392 48.5183 15.56 49.3183 15.56C50.1663 15.56 50.8783 15.376 51.4543 15.008C52.0303 14.624 52.4783 14.136 52.7983 13.544H54.7663C54.3503 14.616 53.6863 15.496 52.7743 16.184C51.8783 16.856 50.7183 17.192 49.2943 17.192ZM45.0943 10.04H53.2543C53.0943 9.016 52.6623 8.16 51.9583 7.472C51.2543 6.784 50.3263 6.44 49.1743 6.44C48.0223 6.44 47.0943 6.784 46.3903 7.472C45.7023 8.16 45.2703 9.016 45.0943 10.04ZM61.6936 17.192C60.5896 17.192 59.6536 17.008 58.8856 16.64C58.1336 16.272 57.5576 15.792 57.1576 15.2C56.7576 14.592 56.5336 13.936 56.4856 13.232H58.3576C58.4056 13.632 58.5416 14.024 58.7656 14.408C59.0056 14.776 59.3656 15.08 59.8456 15.32C60.3256 15.544 60.9496 15.656 61.7176 15.656C61.9576 15.656 62.2536 15.632 62.6056 15.584C62.9576 15.536 63.2936 15.448 63.6136 15.32C63.9496 15.192 64.2296 15 64.4536 14.744C64.6776 14.488 64.7896 14.16 64.7896 13.76C64.7896 13.264 64.5976 12.88 64.2136 12.608C63.8296 12.336 63.3336 12.128 62.7256 11.984C62.1176 11.824 61.4696 11.672 60.7816 11.528C60.1096 11.384 59.4696 11.2 58.8616 10.976C58.2536 10.736 57.7576 10.408 57.3736 9.992C56.9896 9.56 56.7976 8.976 56.7976 8.24C56.7976 7.152 57.1896 6.312 57.9736 5.72C58.7736 5.112 59.9496 4.808 61.5016 4.808C62.5576 4.808 63.4136 4.976 64.0696 5.312C64.7416 5.632 65.2456 6.048 65.5816 6.56C65.9336 7.072 66.1416 7.624 66.2056 8.216H64.3816C64.3176 7.704 64.0616 7.264 63.6136 6.896C63.1816 6.528 62.4616 6.344 61.4536 6.344C59.5496 6.344 58.5976 6.92 58.5976 8.072C58.5976 8.552 58.7896 8.92 59.1736 9.176C59.5576 9.432 60.0536 9.64 60.6616 9.8C61.2696 9.944 61.9096 10.088 62.5816 10.232C63.2696 10.36 63.9176 10.544 64.5256 10.784C65.1336 11.024 65.6296 11.368 66.0136 11.816C66.3976 12.248 66.5896 12.84 66.5896 13.592C66.5896 14.76 66.1416 15.656 65.2456 16.28C64.3656 16.888 63.1816 17.192 61.6936 17.192ZM68.8318 2.984V0.631999H70.7758V2.984H68.8318ZM68.9038 17V5H70.7038V17H68.9038ZM79.3216 21.944C77.8176 21.944 76.5936 21.616 75.6496 20.96C74.7056 20.32 74.0656 19.48 73.7296 18.44H75.7216C75.9616 19.032 76.3776 19.488 76.9696 19.808C77.5616 20.144 78.3136 20.312 79.2256 20.312C80.6016 20.312 81.6016 19.984 82.2256 19.328C82.8656 18.688 83.1856 17.752 83.1856 16.52V14.864C82.7376 15.504 82.1536 16.024 81.4336 16.424C80.7296 16.808 79.8816 17 78.8896 17C77.7216 17 76.6976 16.736 75.8176 16.208C74.9536 15.664 74.2816 14.928 73.8016 14C73.3216 13.072 73.0816 12.04 73.0816 10.904C73.0816 9.752 73.3216 8.72 73.8016 7.808C74.2816 6.88 74.9536 6.152 75.8176 5.624C76.6976 5.08 77.7216 4.808 78.8896 4.808C79.8816 4.808 80.7296 5 81.4336 5.384C82.1536 5.752 82.7376 6.264 83.1856 6.92V5H84.9856V16.64C84.9856 18.352 84.4896 19.664 83.4976 20.576C82.5216 21.488 81.1296 21.944 79.3216 21.944ZM79.1296 15.368C80.0096 15.368 80.7536 15.168 81.3616 14.768C81.9856 14.368 82.4576 13.832 82.7776 13.16C83.1136 12.472 83.2816 11.72 83.2816 10.904C83.2816 10.072 83.1136 9.32 82.7776 8.648C82.4576 7.976 81.9856 7.44 81.3616 7.04C80.7536 6.64 80.0096 6.44 79.1296 6.44C78.2496 6.44 77.4896 6.64 76.8496 7.04C76.2096 7.44 75.7216 7.976 75.3856 8.648C75.0496 9.32 74.8816 10.072 74.8816 10.904C74.8816 11.72 75.0496 12.472 75.3856 13.16C75.7216 13.832 76.2096 14.368 76.8496 14.768C77.4896 15.168 78.2496 15.368 79.1296 15.368ZM88.0991 17V5H89.8991V6.872C90.3311 6.296 90.8591 5.808 91.4831 5.408C92.1071 5.008 92.9071 4.808 93.8831 4.808C94.7151 4.808 95.4911 5.008 96.2111 5.408C96.9471 5.792 97.5391 6.376 97.9871 7.16C98.4511 7.928 98.6831 8.88 98.6831 10.016V17H96.8831V10.064C96.8831 8.976 96.5711 8.104 95.9471 7.448C95.3231 6.776 94.5151 6.44 93.5231 6.44C92.8511 6.44 92.2431 6.592 91.6991 6.896C91.1551 7.2 90.7151 7.632 90.3791 8.192C90.0591 8.736 89.8991 9.368 89.8991 10.088V17H88.0991Z" fill="white"/>
</svg>
